<svg version="1.1" id="Layer_1" xmlns="http://www.w3.org/2000/svg" xmlns:xlink="http://www.w3.org/1999/xlink" x="0px" y="0px"
	 width="100%" viewBox="0 0 512 208" enable-background="new 0 0 512 208" xml:space="preserve">
<path fill="#000000" opacity="1.000000" stroke="none" 
	d="
M71.251068,51.952049 
	C86.830170,51.919090 101.977486,50.594940 117.045883,52.683090 
	C119.820457,53.067585 122.569283,53.848347 125.242050,54.716869 
	C132.800720,57.173088 138.126297,61.992054 139.010330,70.154289 
	C139.856339,77.965569 136.550674,84.050446 129.494980,87.794281 
	C129.550705,89.279854 130.796158,89.309334 131.608765,89.674347 
	C138.731049,92.873703 142.146973,98.345070 142.400635,106.144333 
	C142.674988,114.579933 139.683289,121.070068 132.128250,125.149437 
	C124.507713,129.264160 116.180145,130.965607 107.676674,131.251663 
	C96.703964,131.620804 85.708801,131.269638 74.725876,131.418823 
	C71.220787,131.466446 69.607925,130.491058 69.625526,126.654305 
	C69.733139,103.187202 69.656639,79.719284 69.672302,56.251663 
	C69.673271,54.801208 69.401077,53.204952 71.251068,51.952049 
M104.209396,114.642120 
	C104.873764,114.629623 105.544846,114.673775 106.201447,114.595840 
	C112.666603,113.828506 116.766212,110.342529 116.516571,105.850273 
	C116.246834,100.996231 112.314293,97.869232 105.891739,97.401810 
	C96.058304,96.686150 96.058304,96.686142 96.051720,106.698982 
	C96.046509,114.624466 96.046509,114.624466 104.209396,114.642120 
M96.277176,80.939415 
	C99.448448,86.160759 104.076965,83.367546 108.053032,82.786514 
	C111.907097,82.223335 114.102455,79.518097 113.947205,75.376152 
	C113.890137,73.853310 113.464851,72.444550 112.388306,71.279678 
	C110.128410,68.834381 101.563179,66.938255 98.190186,68.565468 
	C94.601700,70.296646 96.748161,73.862175 96.241493,76.582169 
	C96.032631,77.703415 96.221603,78.898758 96.277176,80.939415 
z"/>
<path fill="#000000" opacity="1.000000" stroke="none" 
	d="
M425.971497,73.648422 
	C429.730621,73.888824 433.076874,73.098854 436.787415,74.404984 
	C435.008209,79.590515 431.868683,83.883247 429.257599,88.417557 
	C421.465607,101.948700 421.437286,101.917168 429.481995,115.298553 
	C432.439362,120.217758 435.319489,125.183395 438.916107,131.283249 
	C430.266174,131.283249 423.169830,131.311203 416.073975,131.265457 
	C414.059357,131.252472 413.458466,129.468277 412.549072,128.106445 
	C410.722107,125.370529 409.816528,122.034149 406.973816,119.524582 
	C404.133148,121.647598 403.332245,125.008919 401.833496,127.814400 
	C400.491821,130.325821 398.887878,131.594238 395.972260,131.400131 
	C388.854736,130.926285 381.730774,131.834137 374.565674,130.750992 
	C370.396301,130.120712 366.246429,132.524628 361.813995,132.441681 
	C348.819183,132.198532 341.514923,126.414993 340.629517,113.610825 
	C339.804077,101.674072 340.218292,89.651566 340.088074,77.666786 
	C340.056213,74.735199 341.480896,73.541695 344.425812,73.613777 
	C349.753174,73.744186 355.091644,73.805984 360.414429,73.604248 
	C364.028687,73.467262 365.473389,74.709763 365.382629,78.457397 
	C365.185150,86.614861 365.326874,94.780647 365.337830,102.943016 
	C365.350555,112.397186 365.446075,112.495697 374.652557,112.819153 
	C375.866638,114.678558 375.519714,116.947655 375.965088,119.016174 
	C376.408783,121.076782 376.399414,123.234940 377.607513,125.783737 
	C382.128784,118.164330 386.692902,110.569786 391.138367,102.906410 
	C392.135773,101.187096 390.751892,99.715813 389.944153,98.313095 
	C386.204865,91.819359 382.393585,85.367058 378.656677,78.871956 
	C377.861664,77.490189 376.443848,76.277504 377.241608,73.778915 
	C384.498535,73.778915 391.932587,73.728058 399.365082,73.812515 
	C401.375854,73.835365 401.929047,75.715897 402.670654,77.170792 
	C404.003632,79.785912 404.786438,82.700737 407.661896,86.148239 
	C409.458923,75.097443 415.963074,71.880180 425.971497,73.648422 
z"/>
<path fill="#000000" opacity="1.000000" stroke="none" 
	d="
M217.563232,130.959824 
	C211.476135,131.229965 205.814667,131.342621 200.152893,131.362274 
	C194.273621,131.382675 194.273483,131.343323 193.187515,124.721413 
	C186.508133,132.049011 178.366165,133.638702 169.435379,131.796066 
	C162.277023,130.319122 156.630630,126.423180 152.421738,120.414383 
	C143.838135,108.160118 145.699677,89.488129 156.526077,79.651207 
	C167.330353,69.834381 180.589767,70.379288 193.452377,81.168701 
	C194.642838,73.655380 194.642838,73.652489 202.646484,73.651848 
	C206.812592,73.651512 210.979324,73.709488 215.144547,73.652046 
	C217.523651,73.619240 219.030457,74.429924 219.027710,77.030853 
	C219.009583,94.193260 218.996872,111.355728 218.920822,128.517899 
	C218.917511,129.267120 218.313141,130.013687 217.563232,130.959824 
M172.632385,105.608627 
	C175.207291,111.168144 179.923492,114.303040 184.458130,113.469322 
	C189.289459,112.581062 193.431976,107.945076 193.703262,103.122871 
	C194.011032,97.652367 191.136551,93.506416 185.896957,91.863609 
	C178.508514,89.547050 172.132797,95.704155 172.632385,105.608627 
z"/>
<path fill="#000000" opacity="1.000000" stroke="none" 
	d="
M240.063629,100.079941 
	C241.896072,96.968712 244.581284,94.751602 245.356094,91.045006 
	C240.798187,89.711510 236.325623,90.535614 231.936432,90.410545 
	C229.102036,90.329781 227.825684,89.459816 227.621414,86.395790 
	C226.771622,73.649872 226.681641,73.654373 239.587555,73.652367 
	C249.736481,73.650787 259.891052,73.852371 270.031799,73.565201 
	C274.673187,73.433754 276.555573,74.676651 276.430206,79.650772 
	C276.312469,84.320992 275.485382,88.282738 272.599731,92.132225 
	C267.428772,99.030334 262.755127,106.301231 257.025024,114.653275 
	C262.539246,114.653275 267.055267,114.865150 271.541718,114.591599 
	C275.733765,114.335999 277.047455,116.032806 276.993530,120.091438 
	C276.815704,133.478561 277.970642,131.230453 265.928711,131.352707 
	C254.616348,131.467560 243.300110,131.256546 231.989258,131.429352 
	C228.128189,131.488342 226.779968,130.180527 226.707169,126.260674 
	C226.610550,121.057587 227.451843,116.548195 231.036987,112.454918 
	C234.309494,108.718597 236.942429,104.422081 240.063629,100.079941 
z"/>
<path fill="#000000" opacity="1.000000" stroke="none" 
	d="
M296.013550,73.651367 
	C306.662842,73.654144 316.817535,73.784691 326.966217,73.595245 
	C330.842010,73.522896 332.182800,74.872749 332.269226,78.765137 
	C332.380493,83.778275 331.457977,88.054626 328.318695,92.215080 
	C323.137573,99.081535 318.569092,106.410233 313.444550,113.984360 
	C318.717438,115.212547 323.502289,114.593552 328.218658,114.588829 
	C331.428467,114.585609 332.480408,115.587021 332.486267,118.918556 
	C332.508118,131.377655 332.635071,131.376053 320.411438,131.373871 
	C309.759857,131.371964 299.101746,131.155838 288.459625,131.473007 
	C283.717041,131.614334 282.635834,129.841888 282.567200,125.424583 
	C282.487701,120.308823 283.723297,116.142113 286.969727,112.142639 
	C291.366852,106.725548 295.236176,100.880234 299.337097,95.222359 
	C300.203918,94.026459 301.186737,92.887459 301.173706,90.955528 
	C297.086548,89.768631 292.929657,90.319565 288.886017,90.458954 
	C284.662201,90.604546 283.498932,88.963593 283.531311,84.923920 
	C283.621613,73.654243 283.469727,73.653030 296.013550,73.651367 
z"/>
<path fill="#000000" opacity="1.000000" stroke="none" 
	d="
M362.725037,64.741829 
	C358.468140,68.451805 353.786835,69.146835 348.901672,67.956001 
	C342.015717,66.277428 338.113037,59.450531 340.054199,53.013550 
	C341.924835,46.810486 350.421600,42.963696 357.364471,45.176582 
	C366.332184,48.034836 368.819214,56.547062 362.725037,64.741829 
z"/>
</svg>