<svg version="1.1" id="Layer_1" xmlns="http://www.w3.org/2000/svg" xmlns:xlink="http://www.w3.org/1999/xlink" x="0px" y="0px"
	 width="100%" viewBox="0 0 500 136" enable-background="new 0 0 500 136" xml:space="preserve">
<path fill="#000000" opacity="1.000000" stroke="none" 
	d="
M1.000000,93.000000 
	C1.000000,62.364414 1.000000,31.728825 1.000000,1.000000 
	C114.020874,1.000000 227.041779,1.000000 340.461060,1.340214 
	C339.129974,4.657037 336.910065,7.459911 335.780304,10.648984 
	C333.852173,16.091736 335.918488,20.856932 340.111267,24.466965 
	C344.516968,28.260338 349.638092,29.013401 354.962708,26.404737 
	C359.688263,24.089581 361.726746,20.366804 362.180206,14.915159 
	C362.689728,8.789505 359.356567,5.047586 356.000000,1.000000 
	C404.213593,1.000000 452.427155,1.000000 501.000000,1.000000 
	C501.000000,11.351458 501.000000,21.707071 500.547607,32.531284 
	C486.352997,31.638018 479.237976,39.246559 475.236267,51.516747 
	C474.152710,46.813667 473.457153,42.277042 472.981445,37.717480 
	C472.645050,34.493572 471.117615,32.932060 467.825897,33.000267 
	C464.001434,33.079517 460.172119,33.096394 456.348633,32.997597 
	C453.088501,32.913357 451.983215,34.513592 451.989166,37.588898 
	C452.035614,61.543991 452.048706,85.499313 451.979706,109.454285 
	C451.969482,113.004799 453.636444,114.104485 456.892395,114.019928 
	C461.380920,113.903336 465.887756,113.782509 470.362793,114.055801 
	C474.812164,114.327522 476.131256,112.428879 476.059998,108.191002 
	C475.864136,96.549400 475.984344,84.902313 475.998230,73.257416 
	C476.012909,60.938366 479.878998,57.023670 492.016785,57.000713 
	C495.011200,56.995049 498.005585,56.999954 501.000000,57.000000 
	C501.000000,83.628616 501.000000,110.257233 501.000000,137.000000 
	C425.645813,137.000000 350.291565,137.000000 274.468628,136.531342 
	C273.999939,123.016449 273.999939,109.970207 273.999939,97.667358 
	C277.521179,102.281937 280.263428,108.395668 284.982391,111.579803 
	C298.299286,120.565445 319.621979,117.698021 326.799316,97.833900 
	C332.702484,81.496300 332.722443,64.814400 326.856293,48.464401 
	C323.521637,39.170025 316.937683,32.495365 306.684113,31.187719 
	C295.139618,29.715443 284.659119,31.731632 278.319641,43.076294 
	C276.915833,45.588440 275.669830,48.188770 273.879761,51.663574 
	C273.438416,49.558361 273.176239,48.497353 272.996613,47.422543 
	C270.177979,30.556910 273.684448,33.211224 256.837891,33.019199 
	C250.061874,32.941967 250.006836,33.069965 250.004868,40.100712 
	C249.995804,72.400475 250.000351,104.700233 250.000000,137.000000 
	C166.999985,137.000000 83.999977,137.000000 1.000000,137.000000 
	C1.000000,129.580536 1.000000,122.259003 1.468657,114.468788 
	C28.507656,114.000099 55.077999,114.000099 82.000031,114.000099 
	C82.000031,108.445564 81.725769,103.461655 82.081192,98.523064 
	C82.403038,94.050972 80.746162,92.878525 76.406540,92.910233 
	C51.272152,93.093903 26.135733,92.999985 1.000000,93.000000 
M381.728363,107.823799 
	C391.534668,115.620697 403.036316,117.008316 414.865082,115.784180 
	C428.708832,114.351501 438.833466,107.380424 443.881866,93.915100 
	C444.976257,90.996155 444.668396,89.258820 441.227264,88.520149 
	C437.327911,87.683098 433.416870,86.698303 429.696136,85.288742 
	C426.026886,83.898682 423.958282,84.614304 422.246552,88.278145 
	C418.823181,95.605545 412.011108,95.275513 405.416016,94.949440 
	C399.433624,94.653648 394.959106,92.084419 392.640503,86.231522 
	C390.558472,80.975845 391.031189,80.032593 396.567780,80.016167 
	C410.896118,79.973656 425.226624,79.864731 439.552002,80.073341 
	C444.187927,80.140854 446.072449,78.041687 445.907928,73.862358 
	C445.699036,68.556862 445.712891,63.140663 444.606628,57.992237 
	C441.711700,44.518963 433.972992,35.060280 420.027863,32.085102 
	C409.966309,29.938473 399.880096,30.168888 390.032776,33.808861 
	C383.564789,36.199692 378.549103,40.236515 374.448059,45.765099 
	C367.787659,54.743855 366.637329,64.910622 366.947906,75.629684 
	C367.313599,88.251289 371.430786,99.041893 381.728363,107.823799 
M235.360336,113.999413 
	C238.765518,114.048149 242.102051,114.454956 242.050232,109.195648 
	C241.884537,92.375984 242.208176,75.549660 241.905975,58.733753 
	C241.673691,45.808647 233.651947,35.943245 221.161804,32.629745 
	C210.787964,29.877670 200.330582,30.136576 190.161682,33.512211 
	C179.020325,37.210667 172.968445,45.432358 170.756256,56.794476 
	C170.221085,59.543186 170.764511,60.778702 173.739014,61.063637 
	C177.868225,61.459164 181.968628,62.202595 186.062424,62.907131 
	C190.032166,63.590313 192.657837,63.159725 194.290176,58.430798 
	C196.211319,52.865215 201.238754,50.802364 207.157990,50.982445 
	C212.049347,51.131264 215.388367,53.401875 217.258347,57.794682 
	C219.582947,63.255424 217.782150,65.954216 211.891235,65.989578 
	C205.729187,66.026573 199.566238,65.950691 193.404572,66.012306 
	C177.264755,66.173698 167.997299,75.526077 168.000275,91.586464 
	C168.002426,103.170250 171.731171,110.187607 181.130768,113.333237 
	C191.438019,116.782616 201.968231,117.244873 210.478226,108.818260 
	C213.862915,105.466751 216.131210,100.987793 218.910461,97.018257 
	C219.207108,98.237038 219.674301,99.658409 219.889343,101.116959 
	C222.078629,115.967216 219.866211,113.790703 235.360336,113.999413 
M150.487427,93.005692 
	C140.783920,93.005692 131.080414,93.005692 120.013672,93.005692 
	C132.148056,81.756378 142.485489,70.844269 154.227615,61.744751 
	C162.333572,55.463078 163.631149,48.315792 163.150116,39.275684 
	C162.902252,34.617382 161.713303,32.845058 156.844727,32.911022 
	C139.701340,33.143299 122.551216,32.850983 105.406815,33.042137 
	C88.473831,33.230930 91.331406,30.008009 90.972038,48.011768 
	C90.899635,51.639469 92.296722,53.084423 95.954193,53.037937 
	C106.107246,52.908890 116.263084,52.998165 126.417816,53.000996 
	C128.154617,53.001480 129.891418,53.001064 132.600800,53.001064 
	C131.325470,54.753227 130.880875,55.622204 130.209442,56.247726 
	C120.605148,65.195641 111.622673,74.988182 101.150200,82.774765 
	C91.612091,89.866631 88.555344,98.179268 89.907356,109.293472 
	C90.311699,112.617310 91.319847,114.228271 94.723534,114.001007 
	C95.883392,113.923569 97.053238,113.998817 98.218521,113.998863 
	C117.362709,113.999542 136.506897,114.001244 155.651077,113.998466 
	C163.994614,113.997261 164.062134,113.992294 163.984161,105.414078 
	C163.854431,91.144531 165.828735,93.196465 150.487427,93.005692 
M336.999146,83.500000 
	C337.001862,91.987297 337.097687,100.476059 336.963226,108.961182 
	C336.906494,112.541542 338.196320,114.161095 341.901917,114.031021 
	C346.722107,113.861816 351.553925,113.919304 356.378296,114.009712 
	C359.433380,114.066963 361.010590,112.962173 361.003998,109.680122 
	C360.955566,85.549744 360.955383,61.419170 361.003082,37.288780 
	C361.009613,33.983398 359.380585,32.929836 356.348602,32.989418 
	C351.857147,33.077686 347.345581,33.248344 342.873901,32.935867 
	C338.162842,32.606667 336.866028,34.623032 336.926758,39.065918 
	C337.124573,53.541573 336.999817,68.021637 336.999146,83.500000 
z"/>
<path fill="#201515" opacity="1.000000" stroke="none" 
	d="
M250.468628,137.000000 
	C250.000351,104.700233 249.995804,72.400475 250.004868,40.100712 
	C250.006836,33.069965 250.061874,32.941967 256.837891,33.019199 
	C273.684448,33.211224 270.177979,30.556910 272.996613,47.422543 
	C273.176239,48.497353 273.438416,49.558361 273.879761,51.663574 
	C275.669830,48.188770 276.915833,45.588440 278.319641,43.076294 
	C284.659119,31.731632 295.139618,29.715443 306.684113,31.187719 
	C316.937683,32.495365 323.521637,39.170025 326.856293,48.464401 
	C332.722443,64.814400 332.702484,81.496300 326.799316,97.833900 
	C319.621979,117.698021 298.299286,120.565445 284.982391,111.579803 
	C280.263428,108.395668 277.521179,102.281937 273.999939,97.667358 
	C273.999939,109.970207 273.999939,123.016449 273.999969,136.531342 
	C266.312408,137.000000 258.624847,137.000000 250.468628,137.000000 
M288.177185,94.520699 
	C297.633209,95.427078 303.878387,91.398788 305.806976,82.328682 
	C306.794128,77.686020 307.229218,72.716766 306.754333,68.012138 
	C305.399139,54.586147 295.878021,49.897015 285.064056,53.326149 
	C277.301788,55.787586 275.104218,62.676178 274.358734,69.876968 
	C273.385803,79.274796 276.071777,91.881958 288.177185,94.520699 
z"/>
<path fill="#201515" opacity="1.000000" stroke="none" 
	d="
M501.000000,56.531364 
	C498.005585,56.999954 495.011200,56.995049 492.016785,57.000713 
	C479.878998,57.023670 476.012909,60.938366 475.998230,73.257416 
	C475.984344,84.902313 475.864136,96.549400 476.059998,108.191002 
	C476.131256,112.428879 474.812164,114.327522 470.362793,114.055801 
	C465.887756,113.782509 461.380920,113.903336 456.892395,114.019928 
	C453.636444,114.104485 451.969482,113.004799 451.979706,109.454285 
	C452.048706,85.499313 452.035614,61.543991 451.989166,37.588898 
	C451.983215,34.513592 453.088501,32.913357 456.348633,32.997597 
	C460.172119,33.096394 464.001434,33.079517 467.825897,33.000267 
	C471.117615,32.932060 472.645050,34.493572 472.981445,37.717480 
	C473.457153,42.277042 474.152710,46.813667 475.236267,51.516747 
	C479.237976,39.246559 486.352997,31.638018 500.547607,32.999943 
	C501.000000,40.687576 501.000000,48.375153 501.000000,56.531364 
z"/>
<path fill="#FF4F00" opacity="1.000000" stroke="none" 
	d="
M1.000000,93.468536 
	C26.135733,92.999985 51.272152,93.093903 76.406540,92.910233 
	C80.746162,92.878525 82.403038,94.050972 82.081192,98.523064 
	C81.725769,103.461655 82.000031,108.445564 82.000031,114.000099 
	C55.077999,114.000099 28.507656,114.000099 1.468657,114.000046 
	C1.000000,107.312355 1.000000,100.624710 1.000000,93.468536 
z"/>
<path fill="#201515" opacity="1.000000" stroke="none" 
	d="
M355.533875,1.000000 
	C359.356567,5.047586 362.689728,8.789505 362.180206,14.915159 
	C361.726746,20.366804 359.688263,24.089581 354.962708,26.404737 
	C349.638092,29.013401 344.516968,28.260338 340.111267,24.466965 
	C335.918488,20.856932 333.852173,16.091736 335.780304,10.648984 
	C336.910065,7.459911 339.129974,4.657037 340.929749,1.340214 
	C345.689240,1.000000 350.378510,1.000000 355.533875,1.000000 
z"/>
<path fill="#201515" opacity="1.000000" stroke="none" 
	d="
M381.433838,107.619759 
	C371.430786,99.041893 367.313599,88.251289 366.947906,75.629684 
	C366.637329,64.910622 367.787659,54.743855 374.448059,45.765099 
	C378.549103,40.236515 383.564789,36.199692 390.032776,33.808861 
	C399.880096,30.168888 409.966309,29.938473 420.027863,32.085102 
	C433.972992,35.060280 441.711700,44.518963 444.606628,57.992237 
	C445.712891,63.140663 445.699036,68.556862 445.907928,73.862358 
	C446.072449,78.041687 444.187927,80.140854 439.552002,80.073341 
	C425.226624,79.864731 410.896118,79.973656 396.567780,80.016167 
	C391.031189,80.032593 390.558472,80.975845 392.640503,86.231522 
	C394.959106,92.084419 399.433624,94.653648 405.416016,94.949440 
	C412.011108,95.275513 418.823181,95.605545 422.246552,88.278145 
	C423.958282,84.614304 426.026886,83.898682 429.696136,85.288742 
	C433.416870,86.698303 437.327911,87.683098 441.227264,88.520149 
	C444.668396,89.258820 444.976257,90.996155 443.881866,93.915100 
	C438.833466,107.380424 428.708832,114.351501 414.865082,115.784180 
	C403.036316,117.008316 391.534668,115.620697 381.433838,107.619759 
M394.302765,63.960358 
	C402.256592,63.970913 410.211212,64.052689 418.163971,63.965668 
	C423.039368,63.912315 423.759003,62.567112 421.574005,58.178936 
	C418.712494,52.432068 413.281494,50.174122 404.493195,51.077530 
	C398.257263,51.718563 393.503693,55.419189 392.172058,60.992996 
	C391.978394,61.803585 393.039276,62.913895 394.302765,63.960358 
z"/>
<path fill="#201515" opacity="1.000000" stroke="none" 
	d="
M234.881927,113.999649 
	C219.866211,113.790703 222.078629,115.967216 219.889343,101.116959 
	C219.674301,99.658409 219.207108,98.237038 218.910461,97.018257 
	C216.131210,100.987793 213.862915,105.466751 210.478226,108.818260 
	C201.968231,117.244873 191.438019,116.782616 181.130768,113.333237 
	C171.731171,110.187607 168.002426,103.170250 168.000275,91.586464 
	C167.997299,75.526077 177.264755,66.173698 193.404572,66.012306 
	C199.566238,65.950691 205.729187,66.026573 211.891235,65.989578 
	C217.782150,65.954216 219.582947,63.255424 217.258347,57.794682 
	C215.388367,53.401875 212.049347,51.131264 207.157990,50.982445 
	C201.238754,50.802364 196.211319,52.865215 194.290176,58.430798 
	C192.657837,63.159725 190.032166,63.590313 186.062424,62.907131 
	C181.968628,62.202595 177.868225,61.459164 173.739014,61.063637 
	C170.764511,60.778702 170.221085,59.543186 170.756256,56.794476 
	C172.968445,45.432358 179.020325,37.210667 190.161682,33.512211 
	C200.330582,30.136576 210.787964,29.877670 221.161804,32.629745 
	C233.651947,35.943245 241.673691,45.808647 241.905975,58.733753 
	C242.208176,75.549660 241.884537,92.375984 242.050232,109.195648 
	C242.102051,114.454956 238.765518,114.048149 234.881927,113.999649 
M197.140152,82.107018 
	C195.170776,83.844208 192.278595,85.259369 191.524384,87.420616 
	C190.922501,89.145401 192.297913,92.497581 193.883163,93.882790 
	C200.095367,99.311035 214.430649,95.082405 217.262604,87.352127 
	C218.609451,83.675705 217.472351,81.954582 213.524170,82.001991 
	C208.358643,82.064034 203.192032,82.033150 197.140152,82.107018 
z"/>
<path fill="#201515" opacity="1.000000" stroke="none" 
	d="
M150.984406,93.005707 
	C165.828735,93.196465 163.854431,91.144531 163.984161,105.414078 
	C164.062134,113.992294 163.994614,113.997261 155.651077,113.998466 
	C136.506897,114.001244 117.362709,113.999542 98.218521,113.998863 
	C97.053238,113.998817 95.883392,113.923569 94.723534,114.001007 
	C91.319847,114.228271 90.311699,112.617310 89.907356,109.293472 
	C88.555344,98.179268 91.612091,89.866631 101.150200,82.774765 
	C111.622673,74.988182 120.605148,65.195641 130.209442,56.247726 
	C130.880875,55.622204 131.325470,54.753227 132.600800,53.001064 
	C129.891418,53.001064 128.154617,53.001480 126.417816,53.000996 
	C116.263084,52.998165 106.107246,52.908890 95.954193,53.037937 
	C92.296722,53.084423 90.899635,51.639469 90.972038,48.011768 
	C91.331406,30.008009 88.473831,33.230930 105.406815,33.042137 
	C122.551216,32.850983 139.701340,33.143299 156.844727,32.911022 
	C161.713303,32.845058 162.902252,34.617382 163.150116,39.275684 
	C163.631149,48.315792 162.333572,55.463078 154.227615,61.744751 
	C142.485489,70.844269 132.148056,81.756378 120.013672,93.005692 
	C131.080414,93.005692 140.783920,93.005692 150.984406,93.005707 
z"/>
<path fill="#201515" opacity="1.000000" stroke="none" 
	d="
M336.999146,83.000000 
	C336.999817,68.021637 337.124573,53.541573 336.926758,39.065918 
	C336.866028,34.623032 338.162842,32.606667 342.873901,32.935867 
	C347.345581,33.248344 351.857147,33.077686 356.348602,32.989418 
	C359.380585,32.929836 361.009613,33.983398 361.003082,37.288780 
	C360.955383,61.419170 360.955566,85.549744 361.003998,109.680122 
	C361.010590,112.962173 359.433380,114.066963 356.378296,114.009712 
	C351.553925,113.919304 346.722107,113.861816 341.901917,114.031021 
	C338.196320,114.161095 336.906494,112.541542 336.963226,108.961182 
	C337.097687,100.476059 337.001862,91.987297 336.999146,83.000000 
z"/>
<path fill="#000000" opacity="1.000000" stroke="none" 
	d="
M287.799805,94.397041 
	C276.071777,91.881958 273.385803,79.274796 274.358734,69.876968 
	C275.104218,62.676178 277.301788,55.787586 285.064056,53.326149 
	C295.878021,49.897015 305.399139,54.586147 306.754333,68.012138 
	C307.229218,72.716766 306.794128,77.686020 305.806976,82.328682 
	C303.878387,91.398788 297.633209,95.427078 287.799805,94.397041 
z"/>
<path fill="#000000" opacity="1.000000" stroke="none" 
	d="
M393.911194,63.922932 
	C393.039276,62.913895 391.978394,61.803585 392.172058,60.992996 
	C393.503693,55.419189 398.257263,51.718563 404.493195,51.077530 
	C413.281494,50.174122 418.712494,52.432068 421.574005,58.178936 
	C423.759003,62.567112 423.039368,63.912315 418.163971,63.965668 
	C410.211212,64.052689 402.256592,63.970913 393.911194,63.922932 
z"/>
<path fill="#000000" opacity="1.000000" stroke="none" 
	d="
M197.583008,82.074631 
	C203.192032,82.033150 208.358643,82.064034 213.524170,82.001991 
	C217.472351,81.954582 218.609451,83.675705 217.262604,87.352127 
	C214.430649,95.082405 200.095367,99.311035 193.883163,93.882790 
	C192.297913,92.497581 190.922501,89.145401 191.524384,87.420616 
	C192.278595,85.259369 195.170776,83.844208 197.583008,82.074631 
z"/>
</svg>